<mxfile host="app.diagrams.net" agent="Mozilla/5.0 (Windows NT 10.0; Win64; x64) AppleWebKit/537.36 (KHTML, like Gecko) Chrome/129.0.0.0 Safari/537.36 Edg/129.0.0.0" version="24.7.17">
  <diagram name="第 1 页" id="AXL69729K6xhk8qBmGdo">
    <mxGraphModel dx="717" dy="410" grid="1" gridSize="10" guides="1" tooltips="1" connect="1" arrows="1" fold="1" page="1" pageScale="1" pageWidth="827" pageHeight="1169" math="0" shadow="0">
      <root>
        <mxCell id="0" />
        <mxCell id="1" parent="0" />
        <mxCell id="FshvrkhKUI7ex1xVPVIT-1" value="Noise&lt;div&gt;&lt;br&gt;&lt;div&gt;&lt;span style=&quot;background-color: initial;&quot;&gt;32x32x4&lt;/span&gt;&lt;/div&gt;&lt;/div&gt;" style="whiteSpace=wrap;html=1;aspect=fixed;" vertex="1" parent="1">
          <mxGeometry x="40" y="80" width="50" height="50" as="geometry" />
        </mxCell>
        <mxCell id="FshvrkhKUI7ex1xVPVIT-2" value="&lt;div&gt;Σ&lt;/div&gt;&lt;div&gt;&lt;br&gt;&lt;div&gt;&lt;span style=&quot;background-color: initial;&quot;&gt;32x32x4&lt;/span&gt;&lt;/div&gt;&lt;/div&gt;" style="whiteSpace=wrap;html=1;aspect=fixed;" vertex="1" parent="1">
          <mxGeometry x="120" y="80" width="50" height="50" as="geometry" />
        </mxCell>
        <mxCell id="FshvrkhKUI7ex1xVPVIT-3" value="Linear and Reshape" style="rounded=1;whiteSpace=wrap;html=1;" vertex="1" parent="1">
          <mxGeometry x="40" y="160" width="130" height="30" as="geometry" />
        </mxCell>
        <mxCell id="FshvrkhKUI7ex1xVPVIT-19" style="edgeStyle=orthogonalEdgeStyle;rounded=0;orthogonalLoop=1;jettySize=auto;html=1;exitX=0.5;exitY=0;exitDx=0;exitDy=0;" edge="1" parent="1" source="FshvrkhKUI7ex1xVPVIT-4">
          <mxGeometry relative="1" as="geometry">
            <mxPoint x="105.02013422818789" y="190.00000000000006" as="targetPoint" />
          </mxGeometry>
        </mxCell>
        <mxCell id="FshvrkhKUI7ex1xVPVIT-4" value="Layer Norm" style="rounded=1;whiteSpace=wrap;html=1;" vertex="1" parent="1">
          <mxGeometry x="40" y="210" width="130" height="30" as="geometry" />
        </mxCell>
        <mxCell id="FshvrkhKUI7ex1xVPVIT-5" value="Patchify" style="rounded=1;whiteSpace=wrap;html=1;" vertex="1" parent="1">
          <mxGeometry x="40" y="330" width="50" height="30" as="geometry" />
        </mxCell>
        <mxCell id="FshvrkhKUI7ex1xVPVIT-6" value="Embed" style="rounded=1;whiteSpace=wrap;html=1;" vertex="1" parent="1">
          <mxGeometry x="110" y="330" width="60" height="30" as="geometry" />
        </mxCell>
        <mxCell id="FshvrkhKUI7ex1xVPVIT-12" style="edgeStyle=orthogonalEdgeStyle;rounded=0;orthogonalLoop=1;jettySize=auto;html=1;exitX=0.5;exitY=0;exitDx=0;exitDy=0;entryX=0.5;entryY=1;entryDx=0;entryDy=0;" edge="1" parent="1" source="FshvrkhKUI7ex1xVPVIT-7" target="FshvrkhKUI7ex1xVPVIT-5">
          <mxGeometry relative="1" as="geometry" />
        </mxCell>
        <mxCell id="FshvrkhKUI7ex1xVPVIT-7" value="Noise&lt;div&gt;Latent&lt;br&gt;&lt;div&gt;&lt;span style=&quot;background-color: initial;&quot;&gt;32x32x4&lt;/span&gt;&lt;/div&gt;&lt;/div&gt;" style="whiteSpace=wrap;html=1;aspect=fixed;" vertex="1" parent="1">
          <mxGeometry x="40" y="390" width="50" height="50" as="geometry" />
        </mxCell>
        <mxCell id="FshvrkhKUI7ex1xVPVIT-13" style="edgeStyle=orthogonalEdgeStyle;rounded=0;orthogonalLoop=1;jettySize=auto;html=1;exitX=0.5;exitY=0;exitDx=0;exitDy=0;entryX=0.5;entryY=1;entryDx=0;entryDy=0;" edge="1" parent="1" source="FshvrkhKUI7ex1xVPVIT-8" target="FshvrkhKUI7ex1xVPVIT-6">
          <mxGeometry relative="1" as="geometry" />
        </mxCell>
        <mxCell id="FshvrkhKUI7ex1xVPVIT-8" value="Timestep t" style="rounded=1;whiteSpace=wrap;html=1;" vertex="1" parent="1">
          <mxGeometry x="110" y="390" width="60" height="50" as="geometry" />
        </mxCell>
        <mxCell id="FshvrkhKUI7ex1xVPVIT-18" style="edgeStyle=orthogonalEdgeStyle;rounded=0;orthogonalLoop=1;jettySize=auto;html=1;exitX=0.5;exitY=0;exitDx=0;exitDy=0;entryX=0.5;entryY=1;entryDx=0;entryDy=0;" edge="1" parent="1" source="FshvrkhKUI7ex1xVPVIT-10" target="FshvrkhKUI7ex1xVPVIT-4">
          <mxGeometry relative="1" as="geometry" />
        </mxCell>
        <mxCell id="FshvrkhKUI7ex1xVPVIT-10" value="DiT Block" style="rounded=1;whiteSpace=wrap;html=1;" vertex="1" parent="1">
          <mxGeometry x="40" y="270" width="130" height="30" as="geometry" />
        </mxCell>
        <mxCell id="FshvrkhKUI7ex1xVPVIT-15" style="edgeStyle=orthogonalEdgeStyle;rounded=0;orthogonalLoop=1;jettySize=auto;html=1;exitX=0.5;exitY=0;exitDx=0;exitDy=0;entryX=0.19;entryY=1.015;entryDx=0;entryDy=0;entryPerimeter=0;" edge="1" parent="1" source="FshvrkhKUI7ex1xVPVIT-5" target="FshvrkhKUI7ex1xVPVIT-10">
          <mxGeometry relative="1" as="geometry">
            <Array as="points">
              <mxPoint x="65" y="316" />
              <mxPoint x="65" y="316" />
            </Array>
          </mxGeometry>
        </mxCell>
        <mxCell id="FshvrkhKUI7ex1xVPVIT-16" style="edgeStyle=orthogonalEdgeStyle;rounded=0;orthogonalLoop=1;jettySize=auto;html=1;exitX=0.5;exitY=0;exitDx=0;exitDy=0;entryX=0.764;entryY=1.022;entryDx=0;entryDy=0;entryPerimeter=0;" edge="1" parent="1" source="FshvrkhKUI7ex1xVPVIT-6" target="FshvrkhKUI7ex1xVPVIT-10">
          <mxGeometry relative="1" as="geometry" />
        </mxCell>
        <mxCell id="FshvrkhKUI7ex1xVPVIT-20" style="edgeStyle=orthogonalEdgeStyle;rounded=0;orthogonalLoop=1;jettySize=auto;html=1;exitX=0.192;exitY=0;exitDx=0;exitDy=0;entryX=0.5;entryY=1;entryDx=0;entryDy=0;exitPerimeter=0;" edge="1" parent="1" source="FshvrkhKUI7ex1xVPVIT-3" target="FshvrkhKUI7ex1xVPVIT-1">
          <mxGeometry relative="1" as="geometry" />
        </mxCell>
        <mxCell id="FshvrkhKUI7ex1xVPVIT-21" style="edgeStyle=orthogonalEdgeStyle;rounded=0;orthogonalLoop=1;jettySize=auto;html=1;exitX=0.808;exitY=0;exitDx=0;exitDy=0;entryX=0.5;entryY=1;entryDx=0;entryDy=0;exitPerimeter=0;" edge="1" parent="1" source="FshvrkhKUI7ex1xVPVIT-3" target="FshvrkhKUI7ex1xVPVIT-2">
          <mxGeometry relative="1" as="geometry" />
        </mxCell>
        <mxCell id="FshvrkhKUI7ex1xVPVIT-22" value="Input Tokens" style="rounded=1;whiteSpace=wrap;html=1;" vertex="1" parent="1">
          <mxGeometry x="240" y="420" width="90" height="20" as="geometry" />
        </mxCell>
        <mxCell id="FshvrkhKUI7ex1xVPVIT-25" value="Conditioning" style="rounded=1;whiteSpace=wrap;html=1;" vertex="1" parent="1">
          <mxGeometry x="360" y="420" width="90" height="20" as="geometry" />
        </mxCell>
        <mxCell id="FshvrkhKUI7ex1xVPVIT-26" value="MLP" style="rounded=1;whiteSpace=wrap;html=1;" vertex="1" parent="1">
          <mxGeometry x="360" y="380" width="90" height="20" as="geometry" />
        </mxCell>
        <mxCell id="FshvrkhKUI7ex1xVPVIT-27" value="Layer Norm" style="rounded=1;whiteSpace=wrap;html=1;" vertex="1" parent="1">
          <mxGeometry x="240" y="390" width="90" height="20" as="geometry" />
        </mxCell>
        <mxCell id="FshvrkhKUI7ex1xVPVIT-28" value="Scale,Shift" style="rounded=1;whiteSpace=wrap;html=1;" vertex="1" parent="1">
          <mxGeometry x="240" y="360" width="90" height="20" as="geometry" />
        </mxCell>
        <mxCell id="FshvrkhKUI7ex1xVPVIT-29" value="Pointwise&lt;div&gt;Feedforward&lt;/div&gt;" style="rounded=1;whiteSpace=wrap;html=1;" vertex="1" parent="1">
          <mxGeometry x="239.57" y="110" width="90" height="40" as="geometry" />
        </mxCell>
        <mxCell id="FshvrkhKUI7ex1xVPVIT-31" value="Layer Norm" style="rounded=1;whiteSpace=wrap;html=1;" vertex="1" parent="1">
          <mxGeometry x="240" y="200" width="90" height="20" as="geometry" />
        </mxCell>
        <mxCell id="FshvrkhKUI7ex1xVPVIT-32" value="Scale,Shift" style="rounded=1;whiteSpace=wrap;html=1;" vertex="1" parent="1">
          <mxGeometry x="239.57" y="165" width="90" height="20" as="geometry" />
        </mxCell>
        <mxCell id="FshvrkhKUI7ex1xVPVIT-33" value="Scale" style="rounded=1;whiteSpace=wrap;html=1;" vertex="1" parent="1">
          <mxGeometry x="239.57" y="80" width="90" height="20" as="geometry" />
        </mxCell>
        <mxCell id="FshvrkhKUI7ex1xVPVIT-34" value="Multi-Head&lt;div&gt;Self-Attention&lt;/div&gt;" style="rounded=1;whiteSpace=wrap;html=1;" vertex="1" parent="1">
          <mxGeometry x="239.57" y="310" width="90" height="40" as="geometry" />
        </mxCell>
        <mxCell id="FshvrkhKUI7ex1xVPVIT-35" value="Scale" style="rounded=1;whiteSpace=wrap;html=1;" vertex="1" parent="1">
          <mxGeometry x="240" y="275" width="90" height="20" as="geometry" />
        </mxCell>
        <mxCell id="FshvrkhKUI7ex1xVPVIT-37" value="" style="verticalLabelPosition=bottom;verticalAlign=top;html=1;shape=mxgraph.flowchart.or;movable=1;resizable=1;rotatable=1;deletable=1;editable=1;locked=0;connectable=1;rotation=45;" vertex="1" parent="1">
          <mxGeometry x="269.57" y="230" width="30" height="30" as="geometry" />
        </mxCell>
      </root>
    </mxGraphModel>
  </diagram>
</mxfile>
